<svg width="39" height="44" viewBox="0 0 39 44" fill="none" xmlns="http://www.w3.org/2000/svg">
<g clip-path="url(#clip0_13_430)">
<path d="M8.59455 5.80351C8.40364 6.18201 8.47365 6.54482 8.49753 6.65576C8.62642 7.27055 9.13952 7.57404 9.23049 7.62553C9.00293 8.05443 9.24374 8.61119 9.63522 8.89777C10.0291 9.1861 10.5286 9.2687 11.0098 9.34356C10.7672 9.35423 10.5737 9.59507 10.5651 9.83647C10.5588 10.0796 10.7014 10.3099 10.8926 10.4581C11.0859 10.6061 11.3198 10.6881 11.5548 10.7508C12.6554 11.0487 13.8092 11.0238 14.9502 10.9584C14.7113 10.6562 14.4686 10.3568 14.2092 10.0727C13.2134 8.98514 11.9691 8.15343 10.7418 7.33601C13.1554 8.06602 15.4013 9.52348 17.3153 11.1926C16.8347 10.5569 16.4048 9.95987 16.0283 9.41815C15.4835 8.71181 14.9533 8.43439 14.5666 8.31274C14.1885 8.19186 13.8061 8.17787 13.4411 7.85737C13.1727 7.62359 13.04 7.33441 12.972 7.13271C12.9326 7.13893 12.094 7.26279 11.5477 6.61405C11.2547 6.2652 11.1372 5.80367 11.2162 5.36211C11.1401 5.3104 11.0399 5.254 10.9153 5.21843C10.4834 5.09329 10.1033 5.29561 9.99791 5.35473C9.94882 5.32636 9.67799 5.17156 9.34299 5.21594C9.28256 5.22335 9.22104 5.23731 9.15875 5.25989C8.80685 5.38553 8.65455 5.68571 8.59455 5.80351Z" fill="#609000"/>
<path d="M9.31203 4.96591C9.31475 5.05045 9.32576 5.13368 9.34299 5.21593C9.67798 5.17155 9.94882 5.32636 9.99791 5.35472C10.1033 5.29561 10.4834 5.09328 10.9153 5.21843C11.0399 5.25399 11.1401 5.31039 11.2162 5.3621C11.2345 5.24877 11.2675 5.13522 11.314 5.02592C11.1214 4.9225 10.4743 4.55093 10.203 3.77382C10.1909 3.7375 10.1754 3.69321 10.1568 3.64303C9.96834 3.70039 9.79424 3.80859 9.65712 3.94919C9.40883 4.21991 9.29242 4.5994 9.31203 4.96591Z" fill="#BEDC88"/>
<path d="M10.1568 3.64303C10.1754 3.69321 10.1909 3.7375 10.203 3.77382C10.4743 4.55093 11.1214 4.9225 11.314 5.02592C11.2675 5.13522 11.2345 5.24877 11.2162 5.36211C11.1372 5.80366 11.2547 6.26519 11.5477 6.61405C12.094 7.26279 12.9326 7.13892 12.972 7.13271C13.04 7.3344 13.1727 7.62359 13.4411 7.85736C13.8061 8.17787 14.1885 8.19185 14.5666 8.31274C14.9533 8.43438 15.4835 8.71181 16.0283 9.41814C14.8102 7.66252 14.1583 6.49302 14.1583 6.49302C13.714 5.69648 13.0579 4.568 12.187 3.23552C12.7179 3.70613 13.2378 4.18699 13.7507 4.67745C15.3365 6.19235 15.3737 6.40103 16.7556 7.80793C16.7326 7.51418 16.6551 7.05058 16.3952 6.5478C16.2236 6.21379 16.0205 5.96333 15.855 5.78977C15.939 5.68942 16.1609 5.39949 16.1867 4.97059C16.2077 4.60615 16.072 4.33867 16.0219 4.23614C15.9568 4.10622 15.8743 3.98753 15.7769 3.88182C15.5332 3.61652 15.1981 3.4315 14.8416 3.37945C14.8049 2.98588 14.5704 2.61717 14.2265 2.41655C13.9481 2.25444 13.6053 2.20872 13.2945 2.28538C13.225 2.30272 13.1565 2.32628 13.0911 2.35573C12.6153 1.72346 11.7136 1.44732 10.9624 1.7082C10.467 1.87986 10.2412 2.33395 10.2199 2.37344C9.96108 2.86036 10.0696 3.35942 10.1568 3.64303Z" fill="#92C538"/>
<path d="M13.2945 2.28537C13.6053 2.20871 13.9481 2.25443 14.2265 2.41654C14.5704 2.61716 14.8049 2.98587 14.8416 3.37944C15.1981 3.43149 15.5332 3.61652 15.7769 3.88182C15.8062 3.71787 15.8454 3.57574 15.8837 3.45499C15.5209 3.1214 15.3426 2.59725 15.4293 2.10988C15.4686 1.90187 15.5518 1.70182 15.6733 1.52969C15.3058 1.34129 14.8704 1.27407 14.4646 1.36785C13.9644 1.4829 13.5289 1.83204 13.2945 2.28537Z" fill="#BEDC88"/>
<path d="M15.4293 2.1099C15.3426 2.59727 15.5209 3.12141 15.8837 3.455C15.8454 3.57575 15.8062 3.71788 15.7769 3.88183C15.8743 3.98754 15.9568 4.10622 16.0219 4.23614C16.072 4.33868 16.2077 4.60616 16.1866 4.9706C16.1609 5.3995 15.939 5.68943 15.855 5.78977C16.0205 5.96333 16.2236 6.2138 16.3952 6.54781C16.6551 7.05058 16.7326 7.51418 16.7556 7.80794C16.8393 7.89455 16.93 7.98433 17.0261 8.08175C17.0261 8.08175 17.4505 8.5097 17.9778 9.11895C17.6099 8.37619 17.3034 7.60465 17.0961 6.80256C16.7498 5.47011 16.6878 4.13528 17.0718 2.81291C17.3116 4.80366 18.058 6.73357 19.2154 8.37346C19.3303 8.53588 19.4489 8.69559 19.5676 8.85529C19.8917 8.4324 20.0448 7.88144 19.9824 7.35174C19.9076 6.74328 19.5506 6.17724 19.0339 5.85094C19.0667 5.6546 19.1122 5.21621 18.9185 4.71573C18.6988 4.145 18.3014 3.83388 18.1412 3.72108C18.3574 3.30037 18.4708 2.82151 18.4121 2.35496C18.355 1.88602 18.1154 1.43103 17.7307 1.16038C17.325 0.878158 16.774 0.818566 16.3191 1.00507C16.0577 1.11217 15.8343 1.29825 15.6733 1.52971C15.5518 1.70183 15.4686 1.90188 15.4293 2.1099Z" fill="#92C538"/>
<path d="M15.855 5.78975C15.939 5.6894 16.1609 5.39948 16.1867 4.97057C16.2077 4.60613 16.072 4.33866 16.0219 4.23612C15.9568 4.1062 15.8743 3.98751 15.7769 3.88181C15.8063 3.71786 15.8454 3.57573 15.8837 3.45498C15.5209 3.12139 15.3426 2.59724 15.4293 2.10987C15.4686 1.90186 15.5518 1.70181 15.6733 1.52968C15.8343 1.29822 16.0577 1.11214 16.3191 1.00504C16.4683 0.94389 16.6281 0.911874 16.7894 0.902775C16.2726 1.66896 16.4972 2.7296 16.7603 3.76547C16.7895 3.88045 16.8139 3.99598 16.837 4.1117C16.7629 5.00664 16.8629 5.90512 17.096 6.80233C17.3033 7.60441 17.6099 8.37596 17.9778 9.11872C17.4504 8.50947 17.026 8.08152 17.026 8.08152C16.9299 7.9841 16.8393 7.89432 16.7555 7.80771C16.7325 7.51395 16.6551 7.05035 16.3952 6.54758C16.2236 6.21377 16.0205 5.96331 15.855 5.78975Z" fill="#609000"/>
<path d="M17.8056 1.98503C17.8152 2.04724 17.8116 2.11323 17.7843 2.16981C17.7569 2.22659 17.7032 2.27246 17.6407 2.2802C17.5692 2.28914 17.5015 2.24906 17.4431 2.2073C17.3519 2.14225 17.267 2.06856 17.1896 1.98752C17.1189 1.9135 17.0504 1.81747 17.0724 1.71755C17.174 1.25863 17.7671 1.73429 17.8056 1.98503Z" fill="#BEDC88"/>
<path d="M18.1333 6.60187C18.2257 6.58728 18.3004 6.51134 18.3094 6.41369C18.3436 6.04102 18.4594 5.67246 18.6448 5.34773C18.7024 5.24708 18.6673 5.1188 18.5667 5.0616C18.4657 5.00406 18.3376 5.03935 18.2806 5.13969C18.0656 5.51605 17.9312 5.94319 17.8915 6.37536C17.881 6.49066 17.966 6.5928 18.0815 6.60346C18.0988 6.60519 18.1163 6.60455 18.1333 6.60187Z" fill="#486C00"/>
<path d="M17.4864 4.90161C17.5575 4.89039 17.6207 4.84302 17.6489 4.77144C17.7294 4.56799 17.8348 4.37441 17.9623 4.19582C18.0299 4.10147 18.0079 3.97068 17.9136 3.90315C17.8194 3.83559 17.6886 3.8573 17.6209 3.95189C17.4733 4.15787 17.3515 4.38187 17.2586 4.61723C17.2162 4.72504 17.269 4.84692 17.3768 4.88939C17.413 4.90363 17.4505 4.90727 17.4864 4.90161Z" fill="#486C00"/>
<path d="M16.863 4.27628C16.8858 4.27268 16.9084 4.26529 16.9298 4.25364C17.0317 4.19867 17.0701 4.07133 17.0149 3.96958C16.8891 3.73623 16.7231 3.5309 16.5215 3.35986C16.4331 3.28459 16.3004 3.29576 16.2258 3.38422C16.1507 3.47254 16.1616 3.60486 16.2502 3.67989C16.4094 3.81514 16.5463 3.98407 16.6457 4.16868C16.689 4.24915 16.7772 4.28982 16.863 4.27628Z" fill="#486C00"/>
<path d="M18.7158 7.74751C18.8074 7.73305 18.8817 7.65866 18.8917 7.56192C18.9078 7.40451 18.9594 7.24917 19.0399 7.11347C19.0992 7.01384 19.0663 6.88499 18.9667 6.82594C18.867 6.76647 18.738 6.79958 18.6792 6.89915C18.5675 7.08691 18.4969 7.30115 18.4741 7.51886C18.4621 7.63397 18.5459 7.73715 18.6613 7.74932C18.6798 7.75106 18.6982 7.75029 18.7158 7.74751Z" fill="#486C00"/>
<path d="M13.5084 4.62816C13.514 4.62728 13.5197 4.62615 13.5255 4.62482C13.638 4.5973 13.7072 4.48399 13.6798 4.37126C13.6059 4.06706 13.6048 3.745 13.6769 3.44027C13.7035 3.32752 13.6336 3.2145 13.5208 3.18769C13.4086 3.16123 13.295 3.23076 13.2683 3.34375C13.1812 3.71245 13.1823 4.10205 13.2719 4.47048C13.2979 4.57726 13.4014 4.64504 13.5084 4.62816Z" fill="#486C00"/>
<path d="M14.819 5.89169C14.8239 5.89091 14.8293 5.88985 14.8342 5.88865C14.9471 5.86234 15.0172 5.74931 14.9907 5.63666C14.925 5.35623 14.9315 5.06121 15.0101 4.78392C15.0416 4.67232 14.9768 4.55637 14.8654 4.52489C14.7534 4.4935 14.6379 4.55846 14.6063 4.66964C14.5086 5.01538 14.5005 5.38266 14.5824 5.73211C14.6075 5.8401 14.7116 5.90864 14.819 5.89169Z" fill="#486C00"/>
<path d="M13.0931 4.85686C13.1567 4.84682 13.2147 4.80772 13.2469 4.74635C13.3003 4.6436 13.2601 4.51697 13.1574 4.46351C12.8112 4.28364 12.4221 4.18956 12.0325 4.19221C11.9169 4.19453 11.8233 4.28769 11.8239 4.40357C11.8248 4.51941 11.9194 4.61281 12.0353 4.61215C12.357 4.61002 12.678 4.68744 12.9638 4.83606C13.0052 4.85735 13.0504 4.8636 13.0931 4.85686Z" fill="#486C00"/>
<path d="M13.8022 6.07892C13.873 6.06773 13.9361 6.0206 13.9646 5.94941C14.0073 5.84156 13.9549 5.71961 13.8472 5.67671C13.4544 5.52034 13.0249 5.46534 12.6054 5.51796C12.6029 5.51815 12.6008 5.51847 12.5986 5.51883C12.4873 5.5364 12.4092 5.63942 12.4234 5.7521C12.4377 5.86731 12.5426 5.94869 12.6575 5.93415C13.0071 5.89045 13.3646 5.9362 13.6919 6.06679C13.7281 6.08104 13.7661 6.08461 13.8022 6.07892Z" fill="#486C00"/>
<path d="M14.6593 7.51236C14.738 7.49993 14.8061 7.44288 14.8289 7.36111C14.8599 7.24937 14.7945 7.13373 14.6828 7.10293C14.3574 7.01261 14.0087 6.98798 13.675 7.0313C13.5608 7.05039 13.479 7.15145 13.494 7.26656C13.509 7.38166 13.6144 7.46253 13.7293 7.44758C14.0082 7.41121 14.2991 7.43199 14.5709 7.50719C14.6005 7.51569 14.6309 7.51685 14.6593 7.51236Z" fill="#486C00"/>
<path d="M11.1521 8.73334C11.1713 8.7303 11.1906 8.7245 11.2092 8.71583C11.5024 8.5765 11.8295 8.51278 12.1541 8.53185C12.2716 8.53859 12.3689 8.44995 12.3757 8.33437C12.3823 8.21863 12.2938 8.11959 12.1782 8.11276C11.7843 8.09019 11.3867 8.16739 11.0293 8.33658C10.9248 8.38601 10.8799 8.51119 10.9296 8.61593C10.9706 8.70208 11.0625 8.74747 11.1521 8.73334Z" fill="#486C00"/>
<path d="M12.1479 9.51547C12.1726 9.51158 12.1968 9.5033 12.2198 9.49011C12.4733 9.34431 12.7457 9.23164 13.0289 9.15509C13.1409 9.12487 13.2071 9.0097 13.1769 8.89785C13.1469 8.78576 13.0332 8.7181 12.9197 8.74982C12.6014 8.83574 12.2955 8.96219 12.0105 9.12635C11.91 9.18406 11.8756 9.31226 11.9333 9.41276C11.9779 9.49048 12.0644 9.52865 12.1479 9.51547Z" fill="#486C00"/>
<path d="M13.9452 10.0014C14.0445 9.98575 14.121 9.90017 14.1221 9.79634C14.1231 9.68041 14.0302 9.58547 13.9144 9.58441C13.4028 9.57935 12.8911 9.63503 12.3923 9.74882C12.2793 9.77472 12.2087 9.8874 12.2344 10.0002C12.2601 10.113 12.3725 10.1808 12.4858 10.1581C12.9519 10.0511 13.4313 9.99968 13.91 10.0042C13.9222 10.004 13.934 10.0032 13.9452 10.0014Z" fill="#486C00"/>
<path d="M10.7418 7.33599C11.9691 8.15341 13.2134 8.98512 14.2092 10.0727C14.4686 10.3568 14.7113 10.6562 14.9502 10.9584C15.2706 11.3603 15.5852 11.7652 15.9331 12.1394C16.5484 12.7942 17.2976 13.3685 18.176 13.5506C19.0562 13.7303 20.0771 13.429 20.5421 12.6609C20.955 11.9798 20.8592 11.09 20.5322 10.3641C20.2865 9.81664 19.9281 9.33579 19.5676 8.85526C19.4489 8.69556 19.3303 8.53586 19.2154 8.37343C18.058 6.73354 17.3116 4.80363 17.0718 2.81289C16.6878 4.13526 16.7498 5.47009 17.0961 6.80253C17.3034 7.60462 17.61 8.37617 17.9778 9.11892C18.5602 9.79385 19.2675 10.6954 19.6539 11.4884C19.7672 11.7212 19.9301 12.1075 19.7648 12.4331C19.6441 12.6774 19.3657 12.8381 19.1041 12.8497C18.6403 12.8719 18.2743 12.4241 18.1099 12.2164C17.8314 11.8653 17.5653 11.5249 17.3153 11.1926C15.4013 9.52346 13.1554 8.066 10.7418 7.33599Z" fill="#BEDC88"/>
<path d="M16.0283 9.41813C16.4048 9.95985 16.8347 10.5569 17.3153 11.1926C17.5653 11.5249 17.8314 11.8653 18.1099 12.2164C18.2743 12.4241 18.6403 12.8719 19.1041 12.8497C19.3657 12.8381 19.6441 12.6774 19.7648 12.4331C19.9301 12.1075 19.7672 11.7212 19.6539 11.4884C19.2675 10.6954 18.5602 9.79385 17.9778 9.11893C17.4505 8.50968 17.0261 8.08173 17.0261 8.08173C16.93 7.98431 16.8393 7.89453 16.7556 7.80792C15.3737 6.40102 15.3365 6.19234 13.7507 4.67744C13.2378 4.18698 12.7179 3.70611 12.187 3.23551C13.0579 4.56798 13.714 5.69647 14.1583 6.49301C14.1583 6.49301 14.8102 7.6625 16.0283 9.41813Z" fill="#D5EF9C"/>
</g>
<path d="M27.6726 9.95909C27.4963 10.1421 27.2044 10.156 27.0139 9.99036C26.6188 9.64642 26.0292 8.97006 25.9895 7.9701C25.9755 7.6185 26.0324 7.3003 26.1279 7.019C26.4802 5.98227 27.8847 5.91596 28.3185 6.91543C28.436 7.18686 28.5181 7.49848 28.5321 7.85008C28.5723 8.84992 28.0386 9.57905 27.6726 9.95909Z" fill="#70C43F"/>
<path d="M29.3181 10.9117C29.2396 11.1513 29.368 11.4084 29.608 11.492C30.1061 11.6651 30.9952 11.8447 31.9081 11.3961C32.2292 11.2385 32.4861 11.0361 32.6915 10.8184C33.4481 10.0157 32.8295 8.77832 31.7269 8.88843C31.4275 8.91857 31.1094 8.9985 30.7883 9.15614C29.8753 9.60422 29.4811 10.4141 29.3181 10.9117Z" fill="#70C43F"/>
<path d="M28.0611 10.4085C28.1478 10.7113 28.4645 10.8908 28.7755 10.8132C29.4212 10.6519 30.4827 10.2306 31.1264 9.14001C31.3528 8.75666 31.4797 8.37025 31.5422 8.00376C31.7715 6.65158 30.2477 5.78861 29.1656 6.65786C28.872 6.89355 28.5941 7.19449 28.3676 7.57784C27.7245 8.66835 27.8814 9.77967 28.0611 10.4085Z" fill="#7DD54D"/>
<path d="M23.0802 20.6028C26.683 19.0517 32.5021 14.1352 29.9684 10.655C29.4135 9.89225 28.537 9.38529 27.5874 9.27676C23.254 8.78225 21.6682 16.1485 22.0207 19.9895C22.0673 20.4981 22.6031 20.8082 23.0802 20.6028Z" fill="#F8972C"/>
<path d="M23.0803 20.6052C22.7428 20.7498 22.3709 20.6323 22.177 20.3647C22.3626 20.4145 22.5712 20.3967 22.7595 20.2871C26.1562 18.3338 31.3598 12.7935 28.4334 9.62948C28.3583 9.55127 28.2827 9.47319 28.2025 9.40347C28.9089 9.62236 29.5365 10.0604 29.9692 10.6567C32.5026 14.1351 26.6831 19.0541 23.0803 20.6052Z" fill="#FF881D"/>
<path d="M27.5162 9.84198C26.9779 9.7811 26.4682 9.86346 26.0011 10.0892C25.9133 10.1319 25.8764 10.2361 25.9188 10.3217C25.9608 10.4075 26.0634 10.4447 26.1543 10.4008C26.5646 10.2025 26.9959 10.1331 27.4727 10.1873C27.4948 10.1898 27.5171 10.1879 27.5377 10.1826C27.6061 10.165 27.6605 10.1075 27.6699 10.0343C27.682 9.93943 27.613 9.85295 27.5162 9.84198Z" fill="#FFA95C"/>
<path d="M25.3883 10.4825C25.3055 10.5502 25.2225 10.6232 25.1414 10.7014C25.0711 10.7687 25.0693 10.8787 25.137 10.9473C25.1825 10.9935 25.2477 11.0087 25.3071 10.9935C25.3358 10.9861 25.3636 10.9713 25.3867 10.9491C25.4608 10.8779 25.5361 10.8112 25.6119 10.7501C25.6876 10.6886 25.6988 10.5791 25.637 10.5051C25.575 10.4307 25.4636 10.4216 25.3883 10.4825Z" fill="#FFA95C"/>
<path d="M30.2792 14.1133L28.9372 13.3365C28.8537 13.2882 28.7446 13.3162 28.6948 13.3988C28.645 13.4814 28.6725 13.5882 28.756 13.6365L30.098 14.4133C30.1397 14.4375 30.1883 14.4427 30.2321 14.4314C30.2759 14.4201 30.3155 14.3923 30.3408 14.3508C30.3897 14.2685 30.3628 14.1621 30.2792 14.1133Z" fill="#EF8720"/>
<path d="M23.8832 13.7798C23.927 13.7685 23.9661 13.7408 23.9915 13.6994C24.0413 13.6167 24.0143 13.5099 23.9308 13.4616L23.0924 12.9759C23.009 12.9276 22.9003 12.9555 22.8505 13.0381C22.8007 13.1207 22.8277 13.2276 22.9112 13.2759L23.7496 13.7616C23.7914 13.7862 23.8394 13.7911 23.8832 13.7798Z" fill="#EF8720"/>
<path d="M25.1459 18.1755C25.0624 18.1271 24.9533 18.1552 24.9035 18.2378C24.8537 18.3204 24.8812 18.4271 24.9647 18.4755L25.9356 19.0375C25.9773 19.0616 26.0259 19.0668 26.0697 19.0556C26.1135 19.0443 26.1531 19.0164 26.1784 18.975C26.2282 18.8924 26.2008 18.7857 26.1173 18.7374L25.1459 18.1755Z" fill="#EF8720"/>
<path d="M5.79373 41.3646L3.86131 19H35.5247L33.5923 41.3646C33.5363 42.0137 33.2794 42.6151 32.8714 43.0524C32.4633 43.4897 31.9331 43.7317 31.3834 43.7317H8.00261C7.45285 43.7317 6.92266 43.4896 6.51463 43.0524C6.1066 42.6151 5.84973 42.0137 5.79373 41.3646Z" fill="#DC1C34"/>
<path opacity="0.302" d="M35.5247 19.916L35.0577 25.4119H4.32847L3.86131 19.916H35.5247Z" fill="#43265C"/>
<g opacity="0.302">
<path d="M21.1727 35.7425V30.0699C21.1727 29.1564 20.5483 28.4158 19.7781 28.4158H19.3993C18.6291 28.4158 18.0047 29.1564 18.0047 30.0699V35.7425C18.0047 36.656 18.6291 37.3966 19.3993 37.3966H19.7781C20.5483 37.3966 21.1727 36.656 21.1727 35.7425Z" fill="#43265C"/>
<path d="M27.2697 35.7425V30.0699C27.2697 29.1564 26.6453 28.4158 25.8751 28.4158H25.4963C24.7261 28.4158 24.1017 29.1564 24.1017 30.0699V35.7425C24.1017 36.656 24.7261 37.3966 25.4963 37.3966H25.8751C26.6453 37.3966 27.2697 36.656 27.2697 35.7425Z" fill="#43265C"/>
<path d="M14.9304 35.7425V30.0699C14.9304 29.1564 14.306 28.4158 13.5358 28.4158H13.157C12.3868 28.4158 11.7625 29.1564 11.7625 30.0699V35.7425C11.7625 36.656 12.3868 37.3966 13.157 37.3966H13.5358C14.306 37.3966 14.9304 36.656 14.9304 35.7425Z" fill="#43265C"/>
</g>
<path d="M21.2378 36.633V31.1365C21.2378 30.2514 20.6289 29.5339 19.8778 29.5339H19.5085C18.7574 29.5339 18.1486 30.2514 18.1486 31.1365V36.633C18.1486 37.5182 18.7574 38.2358 19.5085 38.2358H19.8778C20.6289 38.2358 21.2378 37.5182 21.2378 36.633Z" fill="#931332"/>
<path d="M27.416 36.633V31.1365C27.416 30.2514 26.731 29.5339 25.8861 29.5339H25.4706C24.6257 29.5339 23.9407 30.2514 23.9407 31.1365V36.633C23.9407 37.5182 24.6257 38.2358 25.4706 38.2358H25.8861C26.731 38.2358 27.416 37.5182 27.416 36.633Z" fill="#931332"/>
<path d="M15.0596 36.633V31.1365C15.0596 30.2514 14.3747 29.5339 13.5297 29.5339H13.1142C12.2693 29.5339 11.5844 30.2514 11.5844 31.1365V36.633C11.5844 37.5182 12.2693 38.2358 13.1142 38.2358H13.5297C14.3747 38.2358 15.0596 37.5182 15.0596 36.633Z" fill="#931332"/>
<path d="M36.7431 19H2.25691C1.01045 19 0 20.1278 0 21.519C0 22.9102 1.01045 24.0379 2.25691 24.0379H36.7431C37.9896 24.0379 39 22.9102 39 21.519C39 20.1278 37.9896 19 36.7431 19Z" fill="#DC1C34"/>
<path opacity="0.2" d="M13.1638 20.374H1.89603C1.48875 20.374 1.1586 20.7841 1.1586 21.29C1.1586 21.7958 1.48875 22.2059 1.89603 22.2059H13.1638C13.571 22.2059 13.9012 21.7958 13.9012 21.29C13.9012 20.7841 13.571 20.374 13.1638 20.374Z" fill="#F2FBFF"/>
<path opacity="0.302" d="M33.5941 40.5258L33.5238 41.346C33.4678 42 33.2121 42.6059 32.8062 43.0465C32.4002 43.4872 31.8728 43.7313 31.3258 43.7317H8.06028C7.51331 43.7313 6.9859 43.4872 6.57994 43.0465C6.17398 42.6059 5.91829 42 5.86227 41.346L5.79208 40.5258H33.5941Z" fill="#43265C"/>
<defs>
<clipPath id="clip0_13_430">
<rect width="13.4286" height="13.4286" fill="white" transform="matrix(-0.987772 0.155903 0.155903 0.987772 20.2644 0)"/>
</clipPath>
</defs>
</svg>
